<?xml version="1.0" encoding="utf-8"?>
<!-- Generator: Adobe Illustrator 19.0.0, SVG Export Plug-In . SVG Version: 6.00 Build 0)  -->
<svg version="1.1" id="Layer_1" xmlns="http://www.w3.org/2000/svg" xmlns:xlink="http://www.w3.org/1999/xlink" x="0px" y="0px"
	 viewBox="-450 252 58 58" style="enable-background:new -450 252 58 58;" xml:space="preserve">
<style type="text/css">
	.st0{fill:#bfac8b;}
</style>
<polygon id="color_x5F_2" class="st0" points="-392.4,279.4 -392.4,285.5 -397.7,282.4 -397.7,292.9 -421,306.3 -444.3,292.9 
	-444.3,282.4 -449.6,285.5 -449.6,279.4 -441.7,274.8 -433.8,279.4 -433.8,285.5 -439,282.4 -439,289.8 -421,300.2 -403,289.8 
	-403,282.4 -408.2,285.5 -408.2,279.4 -400.3,274.8 "/>
<path id="color_x5F_1" class="st0" d="M-418.4,277.9l20.7-11.9l-23.3-13.5l-23.3,13.5l20.7,11.9v7.4l-5.3-3.1v6.1l7.9,4.6l7.9-4.6
	v-6.1l-5.3,3.1C-418.4,285.2-418.4,277.9-418.4,277.9z M-421,273.3l-12.8-7.4l12.8-7.4l12.7,7.4L-421,273.3z"/>
</svg>
